<mxfile host="app.diagrams.net" agent="Mozilla/5.0 (Windows NT 10.0; Win64; x64) AppleWebKit/537.36 (KHTML, like Gecko) Chrome/128.0.0.0 Safari/537.36" version="24.7.10">
  <diagram name="Page-1" id="rszfgJb7teOzcuBf8oXw">
    <mxGraphModel dx="2200" dy="1209" grid="0" gridSize="10" guides="1" tooltips="1" connect="1" arrows="1" fold="1" page="0" pageScale="1" pageWidth="850" pageHeight="1100" math="0" shadow="0">
      <root>
        <mxCell id="0" />
        <mxCell id="1" parent="0" />
        <mxCell id="t2gbEaRr7gyC2qYnV51P-47" value="" style="group" vertex="1" connectable="0" parent="1">
          <mxGeometry x="-470" y="-72" width="911" height="523" as="geometry" />
        </mxCell>
        <mxCell id="t2gbEaRr7gyC2qYnV51P-1" value="" style="shape=or;whiteSpace=wrap;html=1;" vertex="1" parent="t2gbEaRr7gyC2qYnV51P-47">
          <mxGeometry x="330" width="145" height="219" as="geometry" />
        </mxCell>
        <mxCell id="t2gbEaRr7gyC2qYnV51P-2" value="" style="endArrow=none;html=1;rounded=0;fontSize=12;startSize=8;endSize=8;curved=1;entryX=-0.001;entryY=0.192;entryDx=0;entryDy=0;entryPerimeter=0;fillColor=#dae8fc;strokeColor=#6c8ebf;" edge="1" parent="t2gbEaRr7gyC2qYnV51P-47">
          <mxGeometry width="50" height="50" relative="1" as="geometry">
            <mxPoint x="135" y="62" as="sourcePoint" />
            <mxPoint x="329.855" y="63.048" as="targetPoint" />
          </mxGeometry>
        </mxCell>
        <mxCell id="t2gbEaRr7gyC2qYnV51P-3" value="" style="endArrow=none;html=1;rounded=0;fontSize=12;startSize=8;endSize=8;curved=1;entryX=-0.001;entryY=0.192;entryDx=0;entryDy=0;entryPerimeter=0;fillColor=#ffe6cc;strokeColor=#d79b00;" edge="1" parent="t2gbEaRr7gyC2qYnV51P-47">
          <mxGeometry width="50" height="50" relative="1" as="geometry">
            <mxPoint x="136" y="89" as="sourcePoint" />
            <mxPoint x="331" y="90" as="targetPoint" />
          </mxGeometry>
        </mxCell>
        <mxCell id="t2gbEaRr7gyC2qYnV51P-4" value="" style="endArrow=none;html=1;rounded=0;fontSize=12;startSize=8;endSize=8;curved=1;entryX=-0.001;entryY=0.192;entryDx=0;entryDy=0;entryPerimeter=0;fillColor=#f8cecc;strokeColor=#b85450;" edge="1" parent="t2gbEaRr7gyC2qYnV51P-47">
          <mxGeometry width="50" height="50" relative="1" as="geometry">
            <mxPoint x="134" y="115" as="sourcePoint" />
            <mxPoint x="329" y="116" as="targetPoint" />
          </mxGeometry>
        </mxCell>
        <mxCell id="t2gbEaRr7gyC2qYnV51P-5" value="" style="endArrow=none;html=1;rounded=0;fontSize=12;startSize=8;endSize=8;curved=1;entryX=-0.001;entryY=0.192;entryDx=0;entryDy=0;entryPerimeter=0;fillColor=#e1d5e7;strokeColor=#9673a6;" edge="1" parent="t2gbEaRr7gyC2qYnV51P-47">
          <mxGeometry width="50" height="50" relative="1" as="geometry">
            <mxPoint x="135" y="143" as="sourcePoint" />
            <mxPoint x="330" y="144" as="targetPoint" />
          </mxGeometry>
        </mxCell>
        <mxCell id="t2gbEaRr7gyC2qYnV51P-6" value="" style="endArrow=none;html=1;rounded=0;fontSize=12;startSize=8;endSize=8;curved=1;entryX=1;entryY=0.5;entryDx=0;entryDy=0;" edge="1" parent="t2gbEaRr7gyC2qYnV51P-47" target="t2gbEaRr7gyC2qYnV51P-9">
          <mxGeometry width="50" height="50" relative="1" as="geometry">
            <mxPoint x="99" y="265" as="sourcePoint" />
            <mxPoint x="276" y="268" as="targetPoint" />
          </mxGeometry>
        </mxCell>
        <mxCell id="t2gbEaRr7gyC2qYnV51P-7" value="" style="endArrow=none;html=1;rounded=0;fontSize=12;startSize=8;endSize=8;curved=1;" edge="1" parent="t2gbEaRr7gyC2qYnV51P-47" source="t2gbEaRr7gyC2qYnV51P-9">
          <mxGeometry width="50" height="50" relative="1" as="geometry">
            <mxPoint x="182" y="268" as="sourcePoint" />
            <mxPoint x="182" y="178" as="targetPoint" />
          </mxGeometry>
        </mxCell>
        <mxCell id="t2gbEaRr7gyC2qYnV51P-8" value="" style="endArrow=none;html=1;rounded=0;fontSize=12;startSize=8;endSize=8;curved=1;" edge="1" parent="t2gbEaRr7gyC2qYnV51P-47">
          <mxGeometry width="50" height="50" relative="1" as="geometry">
            <mxPoint x="182" y="178" as="sourcePoint" />
            <mxPoint x="331" y="179" as="targetPoint" />
          </mxGeometry>
        </mxCell>
        <mxCell id="t2gbEaRr7gyC2qYnV51P-10" value="" style="endArrow=none;html=1;rounded=0;fontSize=12;startSize=8;endSize=8;curved=1;" edge="1" parent="t2gbEaRr7gyC2qYnV51P-47" target="t2gbEaRr7gyC2qYnV51P-9">
          <mxGeometry width="50" height="50" relative="1" as="geometry">
            <mxPoint x="182" y="268" as="sourcePoint" />
            <mxPoint x="182" y="178" as="targetPoint" />
          </mxGeometry>
        </mxCell>
        <mxCell id="t2gbEaRr7gyC2qYnV51P-9" value="" style="ellipse;html=1;shape=endState;fillColor=#000000;strokeColor=#ff0000;" vertex="1" parent="t2gbEaRr7gyC2qYnV51P-47">
          <mxGeometry x="173" y="256" width="17" height="18" as="geometry" />
        </mxCell>
        <mxCell id="t2gbEaRr7gyC2qYnV51P-11" value="" style="shape=or;whiteSpace=wrap;html=1;" vertex="1" parent="t2gbEaRr7gyC2qYnV51P-47">
          <mxGeometry x="358" y="304" width="145" height="219" as="geometry" />
        </mxCell>
        <mxCell id="t2gbEaRr7gyC2qYnV51P-12" value="" style="endArrow=none;html=1;rounded=0;fontSize=12;startSize=8;endSize=8;curved=1;entryX=-0.001;entryY=0.192;entryDx=0;entryDy=0;entryPerimeter=0;fillColor=#dae8fc;strokeColor=#6c8ebf;" edge="1" parent="t2gbEaRr7gyC2qYnV51P-47">
          <mxGeometry width="50" height="50" relative="1" as="geometry">
            <mxPoint x="280" y="366" as="sourcePoint" />
            <mxPoint x="329.855" y="366.048" as="targetPoint" />
          </mxGeometry>
        </mxCell>
        <mxCell id="t2gbEaRr7gyC2qYnV51P-13" value="" style="endArrow=none;html=1;rounded=0;fontSize=12;startSize=8;endSize=8;curved=1;entryX=-0.001;entryY=0.192;entryDx=0;entryDy=0;entryPerimeter=0;fillColor=#ffe6cc;strokeColor=#d79b00;" edge="1" parent="t2gbEaRr7gyC2qYnV51P-47">
          <mxGeometry width="50" height="50" relative="1" as="geometry">
            <mxPoint x="252" y="393" as="sourcePoint" />
            <mxPoint x="331" y="393" as="targetPoint" />
          </mxGeometry>
        </mxCell>
        <mxCell id="t2gbEaRr7gyC2qYnV51P-14" value="" style="endArrow=none;html=1;rounded=0;fontSize=12;startSize=8;endSize=8;curved=1;entryX=-0.001;entryY=0.192;entryDx=0;entryDy=0;entryPerimeter=0;fillColor=#f8cecc;strokeColor=#b85450;" edge="1" parent="t2gbEaRr7gyC2qYnV51P-47">
          <mxGeometry width="50" height="50" relative="1" as="geometry">
            <mxPoint x="232" y="419" as="sourcePoint" />
            <mxPoint x="329" y="419" as="targetPoint" />
          </mxGeometry>
        </mxCell>
        <mxCell id="t2gbEaRr7gyC2qYnV51P-15" value="" style="endArrow=none;html=1;rounded=0;fontSize=12;startSize=8;endSize=8;curved=1;entryX=-0.001;entryY=0.192;entryDx=0;entryDy=0;entryPerimeter=0;fillColor=#e1d5e7;strokeColor=#9673a6;" edge="1" parent="t2gbEaRr7gyC2qYnV51P-47">
          <mxGeometry width="50" height="50" relative="1" as="geometry">
            <mxPoint x="211" y="447" as="sourcePoint" />
            <mxPoint x="330" y="447" as="targetPoint" />
          </mxGeometry>
        </mxCell>
        <mxCell id="t2gbEaRr7gyC2qYnV51P-19" value="" style="endArrow=none;html=1;rounded=0;fontSize=12;startSize=8;endSize=8;curved=1;" edge="1" parent="t2gbEaRr7gyC2qYnV51P-47">
          <mxGeometry width="50" height="50" relative="1" as="geometry">
            <mxPoint x="186" y="265" as="sourcePoint" />
            <mxPoint x="590" y="269" as="targetPoint" />
          </mxGeometry>
        </mxCell>
        <mxCell id="t2gbEaRr7gyC2qYnV51P-20" value="" style="endArrow=none;html=1;rounded=0;fontSize=12;startSize=8;endSize=8;curved=1;fillColor=#dae8fc;strokeColor=#6c8ebf;" edge="1" parent="t2gbEaRr7gyC2qYnV51P-47">
          <mxGeometry width="50" height="50" relative="1" as="geometry">
            <mxPoint x="280" y="366" as="sourcePoint" />
            <mxPoint x="278" y="64" as="targetPoint" />
          </mxGeometry>
        </mxCell>
        <mxCell id="t2gbEaRr7gyC2qYnV51P-21" value="" style="endArrow=none;html=1;rounded=0;fontSize=12;startSize=8;endSize=8;curved=1;fillColor=#ffe6cc;strokeColor=#d79b00;" edge="1" parent="t2gbEaRr7gyC2qYnV51P-47">
          <mxGeometry width="50" height="50" relative="1" as="geometry">
            <mxPoint x="253" y="392" as="sourcePoint" />
            <mxPoint x="251" y="90" as="targetPoint" />
          </mxGeometry>
        </mxCell>
        <mxCell id="t2gbEaRr7gyC2qYnV51P-22" value="" style="endArrow=none;html=1;rounded=0;fontSize=12;startSize=8;endSize=8;curved=1;fillColor=#f8cecc;strokeColor=#b85450;" edge="1" parent="t2gbEaRr7gyC2qYnV51P-47">
          <mxGeometry width="50" height="50" relative="1" as="geometry">
            <mxPoint x="232" y="419" as="sourcePoint" />
            <mxPoint x="230" y="117" as="targetPoint" />
          </mxGeometry>
        </mxCell>
        <mxCell id="t2gbEaRr7gyC2qYnV51P-23" value="" style="endArrow=none;html=1;rounded=0;fontSize=12;startSize=8;endSize=8;curved=1;fillColor=#e1d5e7;strokeColor=#9673a6;" edge="1" parent="t2gbEaRr7gyC2qYnV51P-47">
          <mxGeometry width="50" height="50" relative="1" as="geometry">
            <mxPoint x="211" y="447" as="sourcePoint" />
            <mxPoint x="209" y="145" as="targetPoint" />
          </mxGeometry>
        </mxCell>
        <mxCell id="t2gbEaRr7gyC2qYnV51P-24" value="" style="ellipse;html=1;shape=endState;fillColor=#000000;strokeColor=#ff0000;" vertex="1" parent="t2gbEaRr7gyC2qYnV51P-47">
          <mxGeometry x="270" y="54" width="17" height="18" as="geometry" />
        </mxCell>
        <mxCell id="t2gbEaRr7gyC2qYnV51P-25" value="" style="ellipse;html=1;shape=endState;fillColor=#000000;strokeColor=#ff0000;" vertex="1" parent="t2gbEaRr7gyC2qYnV51P-47">
          <mxGeometry x="243" y="80" width="17" height="18" as="geometry" />
        </mxCell>
        <mxCell id="t2gbEaRr7gyC2qYnV51P-26" value="" style="ellipse;html=1;shape=endState;fillColor=#000000;strokeColor=#ff0000;" vertex="1" parent="t2gbEaRr7gyC2qYnV51P-47">
          <mxGeometry x="222" y="106" width="17" height="18" as="geometry" />
        </mxCell>
        <mxCell id="t2gbEaRr7gyC2qYnV51P-27" value="" style="ellipse;html=1;shape=endState;fillColor=#000000;strokeColor=#ff0000;" vertex="1" parent="t2gbEaRr7gyC2qYnV51P-47">
          <mxGeometry x="201" y="133" width="17" height="18" as="geometry" />
        </mxCell>
        <mxCell id="t2gbEaRr7gyC2qYnV51P-28" value="" style="endArrow=none;html=1;rounded=0;fontSize=12;startSize=8;endSize=8;curved=1;" edge="1" parent="t2gbEaRr7gyC2qYnV51P-47">
          <mxGeometry width="50" height="50" relative="1" as="geometry">
            <mxPoint x="330" y="520" as="sourcePoint" />
            <mxPoint x="330" y="304" as="targetPoint" />
          </mxGeometry>
        </mxCell>
        <mxCell id="t2gbEaRr7gyC2qYnV51P-30" value="" style="shape=or;whiteSpace=wrap;html=1;" vertex="1" parent="t2gbEaRr7gyC2qYnV51P-47">
          <mxGeometry x="590" y="222" width="145" height="219" as="geometry" />
        </mxCell>
        <mxCell id="t2gbEaRr7gyC2qYnV51P-31" value="" style="endArrow=none;html=1;rounded=0;fontSize=12;startSize=8;endSize=8;curved=1;entryX=-0.008;entryY=0.846;entryDx=0;entryDy=0;entryPerimeter=0;fillColor=#a0522d;strokeColor=#6D1F00;" edge="1" parent="t2gbEaRr7gyC2qYnV51P-47" target="t2gbEaRr7gyC2qYnV51P-30">
          <mxGeometry width="50" height="50" relative="1" as="geometry">
            <mxPoint x="503" y="407" as="sourcePoint" />
            <mxPoint x="579" y="407" as="targetPoint" />
          </mxGeometry>
        </mxCell>
        <mxCell id="t2gbEaRr7gyC2qYnV51P-32" value="&lt;b&gt;Nose Gear&lt;/b&gt;" style="text;html=1;align=center;verticalAlign=middle;whiteSpace=wrap;rounded=0;fontSize=16;" vertex="1" parent="t2gbEaRr7gyC2qYnV51P-47">
          <mxGeometry x="58" y="37" width="98" height="30" as="geometry" />
        </mxCell>
        <mxCell id="t2gbEaRr7gyC2qYnV51P-33" value="&lt;b&gt;Left Main Gear&lt;/b&gt;" style="text;html=1;align=center;verticalAlign=middle;whiteSpace=wrap;rounded=0;fontSize=16;" vertex="1" parent="t2gbEaRr7gyC2qYnV51P-47">
          <mxGeometry x="22" y="65" width="133" height="31" as="geometry" />
        </mxCell>
        <mxCell id="t2gbEaRr7gyC2qYnV51P-34" value="&lt;b&gt;Right Main Gear&lt;/b&gt;" style="text;html=1;align=center;verticalAlign=middle;whiteSpace=wrap;rounded=0;fontSize=16;" vertex="1" parent="t2gbEaRr7gyC2qYnV51P-47">
          <mxGeometry x="16" y="90" width="133" height="31" as="geometry" />
        </mxCell>
        <mxCell id="t2gbEaRr7gyC2qYnV51P-35" value="&lt;b&gt;Alignment&lt;/b&gt;" style="text;html=1;align=center;verticalAlign=middle;whiteSpace=wrap;rounded=0;fontSize=16;" vertex="1" parent="t2gbEaRr7gyC2qYnV51P-47">
          <mxGeometry x="40" y="117" width="133" height="31" as="geometry" />
        </mxCell>
        <mxCell id="t2gbEaRr7gyC2qYnV51P-36" value="&lt;b&gt;Gear Down Switch&lt;/b&gt;" style="text;html=1;align=center;verticalAlign=middle;whiteSpace=wrap;rounded=0;fontSize=16;" vertex="1" parent="t2gbEaRr7gyC2qYnV51P-47">
          <mxGeometry y="237" width="160" height="31" as="geometry" />
        </mxCell>
        <mxCell id="t2gbEaRr7gyC2qYnV51P-37" value="" style="endArrow=none;html=1;rounded=0;fontSize=12;startSize=8;endSize=8;curved=1;entryX=-0.008;entryY=0.846;entryDx=0;entryDy=0;entryPerimeter=0;fillColor=#008a00;strokeColor=#005700;" edge="1" parent="t2gbEaRr7gyC2qYnV51P-47">
          <mxGeometry width="50" height="50" relative="1" as="geometry">
            <mxPoint x="476" y="103" as="sourcePoint" />
            <mxPoint x="562" y="103" as="targetPoint" />
          </mxGeometry>
        </mxCell>
        <mxCell id="t2gbEaRr7gyC2qYnV51P-38" value="" style="endArrow=none;html=1;rounded=0;fontSize=12;startSize=8;endSize=8;curved=1;entryX=-0.008;entryY=0.846;entryDx=0;entryDy=0;entryPerimeter=0;fillColor=#e51400;strokeColor=#B20000;" edge="1" parent="t2gbEaRr7gyC2qYnV51P-47">
          <mxGeometry width="50" height="50" relative="1" as="geometry">
            <mxPoint x="734" y="327" as="sourcePoint" />
            <mxPoint x="820" y="327" as="targetPoint" />
          </mxGeometry>
        </mxCell>
        <mxCell id="t2gbEaRr7gyC2qYnV51P-39" value="&lt;b&gt;Green LED&lt;/b&gt;" style="text;html=1;align=center;verticalAlign=middle;whiteSpace=wrap;rounded=0;fontSize=16;" vertex="1" parent="t2gbEaRr7gyC2qYnV51P-47">
          <mxGeometry x="491" y="73" width="133" height="31" as="geometry" />
        </mxCell>
        <mxCell id="t2gbEaRr7gyC2qYnV51P-40" value="&lt;b&gt;Red LED&lt;/b&gt;" style="text;html=1;align=center;verticalAlign=middle;whiteSpace=wrap;rounded=0;fontSize=16;" vertex="1" parent="t2gbEaRr7gyC2qYnV51P-47">
          <mxGeometry x="738" y="296" width="133" height="31" as="geometry" />
        </mxCell>
        <mxCell id="t2gbEaRr7gyC2qYnV51P-41" value="" style="shape=trapezoid;perimeter=trapezoidPerimeter;whiteSpace=wrap;html=1;fixedSize=1;fillColor=#60a917;fontColor=#ffffff;strokeColor=#2D7600;" vertex="1" parent="t2gbEaRr7gyC2qYnV51P-47">
          <mxGeometry x="599" y="67" width="52" height="44" as="geometry" />
        </mxCell>
        <mxCell id="t2gbEaRr7gyC2qYnV51P-42" value="" style="ellipse;shape=cloud;whiteSpace=wrap;html=1;fillColor=#60a917;fontColor=#ffffff;strokeColor=#2D7600;" vertex="1" parent="t2gbEaRr7gyC2qYnV51P-47">
          <mxGeometry x="586.5" y="15" width="77" height="44" as="geometry" />
        </mxCell>
        <mxCell id="t2gbEaRr7gyC2qYnV51P-43" value="" style="shape=trapezoid;perimeter=trapezoidPerimeter;whiteSpace=wrap;html=1;fixedSize=1;fillColor=#e51400;fontColor=#ffffff;strokeColor=#B20000;" vertex="1" parent="t2gbEaRr7gyC2qYnV51P-47">
          <mxGeometry x="846.5" y="283" width="52" height="44" as="geometry" />
        </mxCell>
        <mxCell id="t2gbEaRr7gyC2qYnV51P-44" value="" style="ellipse;shape=cloud;whiteSpace=wrap;html=1;fillColor=#e51400;fontColor=#ffffff;strokeColor=#B20000;" vertex="1" parent="t2gbEaRr7gyC2qYnV51P-47">
          <mxGeometry x="834" y="231" width="77" height="44" as="geometry" />
        </mxCell>
        <mxCell id="t2gbEaRr7gyC2qYnV51P-45" value="" style="ellipse;whiteSpace=wrap;html=1;fillColor=#60a917;fontColor=#ffffff;strokeColor=#2D7600;" vertex="1" parent="t2gbEaRr7gyC2qYnV51P-47">
          <mxGeometry x="599" y="21" width="52.5" height="44" as="geometry" />
        </mxCell>
        <mxCell id="t2gbEaRr7gyC2qYnV51P-46" value="" style="ellipse;whiteSpace=wrap;html=1;fillColor=#e51400;fontColor=#ffffff;strokeColor=#B20000;" vertex="1" parent="t2gbEaRr7gyC2qYnV51P-47">
          <mxGeometry x="846.5" y="239" width="52.5" height="44" as="geometry" />
        </mxCell>
      </root>
    </mxGraphModel>
  </diagram>
</mxfile>
